Coordinates
version=1
nRows=5
nColumns=40
inDegrees=yes

Units are S.I. units (second, meters, Newtons, ...)
Angles are in degrees.

endheader
time	pelvis_tilt	pelvis_list	pelvis_rotation	pelvis_tx	pelvis_ty	pelvis_tz	hip_flexion_r	hip_adduction_r	hip_rotation_r	knee_angle_r	knee_angle_r_beta	ankle_angle_r	subtalar_angle_r	mtp_angle_r	hip_flexion_l	hip_adduction_l	hip_rotation_l	knee_angle_l	knee_angle_l_beta	ankle_angle_l	subtalar_angle_l	mtp_angle_l	lumbar_extension	lumbar_bending	lumbar_rotation	arm_flex_r	arm_add_r	arm_rot_r	elbow_flex_r	pro_sup_r	wrist_flex_r	wrist_dev_r	arm_flex_l	arm_add_l	arm_rot_l	elbow_flex_l	pro_sup_l	wrist_flex_l	wrist_dev_l
     50.86000000	     -0.97252063	     -4.92696367	      1.81598069	      1.05294378	      0.93338378	      0.41185638	     30.61788517	     -5.41013670	     -5.04287731	     68.86357218	     68.86357218	     -3.39676877	    -18.21690161	      5.44863908	     15.11394639	     -5.20130663	     -2.69239716	     24.64253322	     24.64253322	     12.77203401	    -12.74250492	      0.48819626	    -12.13174661	      3.27709107	      1.87994482	      9.35267227	    -13.17055584	     -5.17823295	     24.50554541	     44.42956095	      0.00000000	      0.00000000	     11.23685879	    -13.77090539	     -2.13104927	     46.97830202	     44.17761178	      0.00000000	      0.00000000
     50.87335714	     -0.99086661	     -5.00050927	      1.53410346	      1.05304950	      0.93408251	      0.41088822	     31.19088018	     -5.23318053	     -5.08652388	     66.80443587	     66.80443587	     -2.84674549	    -17.96261576	      5.10041339	     14.42614633	     -5.21033981	     -2.82328674	     24.18624250	     24.18624250	     12.92170604	    -12.95651824	      0.54114270	    -12.13005602	      3.47286215	      1.73787250	      7.63480464	    -13.63900929	     -5.13773426	     23.43413723	     44.49325861	      0.00000000	      0.00000000	     11.79261881	    -13.87529834	     -2.34998020	     47.79447826	     44.24696649	      0.00000000	      0.00000000
     50.88671429	     -0.97407613	     -5.10088657	      1.20602071	      1.05316070	      0.93486232	      0.41000862	     31.58663519	     -4.96864329	     -5.12091068	     64.47143228	     64.47143228	     -2.44840801	    -17.72175675	      4.77570868	     13.66007110	     -5.28752510	     -3.10416694	     23.66631838	     23.66631838	     13.14989871	    -12.85566978	      0.49200710	    -12.23344896	      3.65840921	      1.59000844	      5.96205732	    -14.12972713	     -5.23230517	     22.64259723	     44.55100224	      0.00000000	      0.00000000	     12.16399052	    -13.92549207	     -2.59386943	     48.86846344	     44.31279974	      0.00000000	      0.00000000
     50.90007143	     -1.06255523	     -5.14518478	      0.90625543	      1.05335227	      0.93537249	      0.40914786	     31.96249034	     -4.77797538	     -5.20368708	     61.93031078	     61.93031078	     -1.93837733	    -17.46373216	      4.65158727	     13.06384845	     -5.30320615	     -3.39367068	     23.24869036	     23.24869036	     13.33433696	    -12.75823479	      0.46293884	    -12.11793615	      3.86176156	      1.21701599	      4.31093978	    -14.52841821	     -5.36041764	     22.01397272	     44.59043457	      0.00000000	      0.00000000	     12.44268683	    -14.25255657	     -2.84279066	     49.63991727	     44.36104430	      0.00000000	      0.00000000
     50.91342857	     -0.95156239	     -5.10278471	      0.49468570	      1.05365068	      0.93614847	      0.40852946	     31.94227832	     -4.61945699	     -5.26880921	     59.05188491	     59.05188491	     -1.68546272	    -17.28778551	      3.90521450	     12.12713093	     -5.28048635	     -3.99552227	     22.64215362	     22.64215362	     13.49467729	    -12.40622300	      0.25717315	    -12.40653094	      3.87132240	      1.48732557	      2.37919755	    -15.01713565	     -5.87944855	     21.61374446	     44.69663691	      0.00000000	      0.00000000	     12.54652796	    -14.22942301	     -3.42748432	     52.15894651	     44.49834256	      0.00000000	      0.00000000
